<svg width="32" height="32" viewBox="0 0 32 32" fill="none" xmlns="http://www.w3.org/2000/svg">
<path fill-rule="evenodd" clip-rule="evenodd" d="M1.5 2H30.5V31H1.5V2Z" fill="#FF78C7"/>
<path fill-rule="evenodd" clip-rule="evenodd" d="M3 3.5H29V29.5H3V3.5Z" fill="#0A3586"/>
<path fill-rule="evenodd" clip-rule="evenodd" d="M18.04 23C17.9733 24.12 17.4267 24.68 16.4 24.68C15.9867 24.68 15.5733 24.5834 15.16 24.39C14.7467 24.1967 14.4533 23.9867 14.28 23.76C14.1733 23.6134 14.12 23.4667 14.12 23.32C14.12 23.2134 14.1567 23.0767 14.23 22.91C14.3033 22.7434 14.34 22.62 14.34 22.54C14.34 22.46 14.32 22.3867 14.28 22.32L11.88 18.2L9.6 22.92C9.52 23.0934 9.50666 23.34 9.56 23.66C9.61333 23.9 9.56 24.1 9.4 24.26C9.18666 24.4734 8.84667 24.58 8.38 24.58C7.83333 24.58 7.32 24.4467 6.84 24.18C6.32 23.9134 6.06 23.5867 6.06 23.2C6.06 23.1067 6.08 23.0134 6.12 22.92C6.17333 22.76 6.28666 22.63 6.46 22.53C6.63333 22.43 6.74666 22.3334 6.8 22.24L10.2 15.6L6.96 9.60004C6.92 9.52004 6.79667 9.43671 6.59 9.35004C6.38333 9.26337 6.26666 9.13337 6.24 8.96004C6.2 8.61337 6.48666 8.28671 7.1 7.98004C7.67333 7.6867 8.24 7.54004 8.8 7.54004C9.01333 7.54004 9.18666 7.57337 9.32 7.64004C9.53333 7.74671 9.66666 7.9667 9.72 8.30004C9.8 8.76671 10.5067 10.3334 11.84 13L13.48 9.36004C13.5333 9.24004 13.5933 8.99337 13.66 8.62004C13.7133 8.3267 13.8133 8.10671 13.96 7.96004C14.1733 7.76004 14.5 7.66004 14.94 7.66004C15.46 7.66004 15.9267 7.7867 16.34 8.04004C16.7933 8.33337 17 8.69337 16.96 9.12004C16.92 9.46671 16.7733 9.70671 16.52 9.84004C16.2 9.98671 16.0133 10.12 15.96 10.24L13.36 15.6L17.16 21.96C17.2 22.04 17.38 22.1867 17.7 22.4C17.94 22.5467 18.0533 22.7467 18.04 23ZM26.12 23.88C25.96 24.24 25.4667 24.42 24.64 24.42C24.12 24.42 23.7733 24.3134 23.6 24.1C23.5333 24.0334 23.5 23.94 23.5 23.82C23.5 23.7267 23.5333 23.58 23.6 23.38C23.6667 23.18 23.7067 23.0267 23.72 22.92C23.1067 23.7867 22.3867 24.22 21.56 24.22C20.4533 24.22 19.6467 23.5934 19.14 22.34C18.7533 21.38 18.56 20.1334 18.56 18.6C18.56 17.1867 18.86 15.9 19.46 14.74C20.1267 13.4734 20.9467 12.84 21.92 12.84C22.4667 12.84 23.0267 13.28 23.6 14.16V11.58C23.6 11.3667 23.5133 11.0934 23.34 10.76C23.1667 10.4267 23.08 10.1734 23.08 10C23.08 9.86671 23.1133 9.73337 23.18 9.60004C23.46 9.00004 24.0067 8.70004 24.82 8.70004C25.4867 8.70004 25.9 8.94004 26.06 9.42004C26.1133 9.58004 26.14 9.73337 26.14 9.88004C26.14 10.0267 26.0967 10.2234 26.01 10.47C25.9233 10.7167 25.88 10.9267 25.88 11.1V22.5C25.88 22.6467 25.9333 22.8234 26.04 23.03C26.1467 23.2367 26.2 23.4067 26.2 23.54C26.2 23.6467 26.1733 23.76 26.12 23.88ZM23.36 18.6C23.36 17.9867 23.2333 17.2667 22.98 16.44C22.7 15.56 22.4267 15.12 22.16 15.12C21.8533 15.12 21.6067 15.5267 21.42 16.34C21.2733 17.0067 21.2 17.76 21.2 18.6C21.2 18.7467 21.1933 18.9867 21.18 19.32V20.06C21.18 21.5667 21.5067 22.32 22.16 22.32C22.4667 22.32 22.7467 21.8867 23 21.02C23.24 20.22 23.36 19.4134 23.36 18.6Z" fill="#FF78C7"/>
</svg>
