<svg width="79" height="80" viewBox="0 0 79 80" fill="none" xmlns="http://www.w3.org/2000/svg">
<path d="M32.6925 59.0203L35.0055 56.3721C37.8004 53.1721 44.192 53.4188 48.5093 53.3829C54.5935 53.334 59.9647 50.8203 64.1464 46.0324C71.8565 37.2049 70.4513 23.5284 60.9126 15.1973C58.6688 13.2273 56.0853 11.6884 53.3108 10.6691C50.5362 9.64979 47.6253 9.17023 44.7453 9.25796C41.8654 9.34569 39.0732 9.99898 36.5295 11.1803C33.9857 12.3616 31.7404 14.0476 29.9228 16.1413C25.8904 20.7581 23.9575 26.7631 24.7429 32.6252C25.3098 36.857 26.4214 43.1753 23.5976 46.4084L21.2846 49.0566" stroke="white" stroke-opacity="0.7" stroke-width="4" stroke-linecap="round" stroke-linejoin="round"/>
<path d="M13.9338 61.3102L21.539 67.9527" stroke="white" stroke-opacity="0.7" stroke-width="4" stroke-linecap="round" stroke-linejoin="round"/>
<path d="M16.6587 54.3532L28.0665 64.3169" stroke="white" stroke-opacity="0.7" stroke-width="4" stroke-linecap="round" stroke-linejoin="round"/>
<path d="M26.9886 54.0386L39.3245 39.9145" stroke="white" stroke-opacity="0.7" stroke-width="4" stroke-linecap="round" stroke-linejoin="round"/>
<path d="M45.3823 42.093C45.3823 42.093 41.2842 41.626 39.3246 39.9146C37.3651 38.2031 36.351 34.2051 36.351 34.2051" stroke="white" stroke-opacity="0.7" stroke-width="4" stroke-linecap="round" stroke-linejoin="round"/>
</svg>
