<svg width="32" height="32" viewBox="0 0 32 32" fill="none" xmlns="http://www.w3.org/2000/svg">
<path d="M25.4666 11.6C27.8666 14 27.8666 17.7333 25.4666 20.2667L26.8 21.6C30.1333 18.5333 30.1333 13.4667 26.8 10.2667L25.4666 11.6ZM24 13.0667L22.6666 14.4C23.3333 15.3333 23.3333 16.5333 22.6666 17.4667L24 18.8C25.6 17.2 25.6 14.8 24 13.0667ZM18.6666 1.33334H5.33329C4.62605 1.33334 3.94777 1.6143 3.44767 2.11439C2.94758 2.61449 2.66663 3.29277 2.66663 4.00001V28C2.66663 28.7073 2.94758 29.3855 3.44767 29.8856C3.94777 30.3857 4.62605 30.6667 5.33329 30.6667H18.6666C19.3739 30.6667 20.0521 30.3857 20.5522 29.8856C21.0523 29.3855 21.3333 28.7073 21.3333 28V4.00001C21.3333 3.29277 21.0523 2.61449 20.5522 2.11439C20.0521 1.6143 19.3739 1.33334 18.6666 1.33334ZM18.6666 26.6667H5.33329V5.33334H18.6666V26.6667Z" fill="white"/>
</svg>
