<svg width="50" height="40" viewBox="0 0 50 40" fill="none" xmlns="http://www.w3.org/2000/svg">
<path d="M21.7893 0.0389595L17.0241 1.42188C16.5241 1.56252 16.2429 2.08599 16.3835 2.58603L27.0467 39.3232C27.1873 39.8232 27.7107 40.1045 28.2107 39.9638L32.9759 38.5809C33.4759 38.4403 33.7571 37.9168 33.6165 37.4168L22.9533 0.679634C22.8049 0.179596 22.2893 -0.109489 21.7893 0.0389595ZM12.8838 8.80524L16.2819 12.4305C16.6413 12.8134 16.6178 13.4228 16.2194 13.7744L9.14186 20.0014L16.2194 26.2284C16.6178 26.58 16.6491 27.1894 16.2819 27.5723L12.8838 31.1976C12.5322 31.5726 11.9385 31.596 11.5557 31.2366L0.298805 20.689C-0.0996016 20.3217 -0.0996016 19.6889 0.298805 19.3217L11.5557 8.76618C11.9385 8.40678 12.5322 8.4224 12.8838 8.80524ZM38.4443 8.75837L49.7012 19.3138C50.0996 19.6811 50.0996 20.3139 49.7012 20.6811L38.4443 31.2444C38.0693 31.596 37.4756 31.5804 37.1162 31.2054L33.7181 27.5801C33.3587 27.1973 33.3822 26.5878 33.7806 26.2362L40.8581 20.0014L33.7806 13.7744C33.3822 13.4228 33.3509 12.8134 33.7181 12.4305L37.1162 8.80524C37.4678 8.4224 38.0615 8.40678 38.4443 8.75837Z" fill="white"/>
</svg>
