<svg width="50" height="50" viewBox="0 0 50 50" fill="none" xmlns="http://www.w3.org/2000/svg">
<path d="M35.4166 12.5001V33.9152L38.5416 37.0632L41.6666 33.9152V12.5001H35.4166ZM35.4166 10.4167H41.6666V6.28074H35.4166V10.4167ZM43.75 14.5834V34.3444C43.75 34.6194 43.6413 34.8832 43.4476 35.0783L39.2809 39.2756C38.8735 39.686 38.2098 39.686 37.8024 39.2756L33.6357 35.0783C33.442 34.8832 33.3333 34.6194 33.3333 34.3444V29.1667H32.2916C30.5658 29.1667 29.1666 27.7676 29.1666 26.0417V19.7917C29.1666 18.0659 30.5658 16.6667 32.2916 16.6667H33.3333V14.5834H12.5V30.2084C12.5 30.7837 12.0336 31.2501 11.4583 31.2501H10.4166C6.96487 31.2501 4.16665 34.0483 4.16665 37.5001C4.16665 40.9519 6.96487 43.7501 10.4166 43.7501H45.8333V14.5834H43.75ZM43.75 12.5001H46.875C47.4503 12.5001 47.9166 12.9665 47.9166 13.5417V44.7917C47.9166 45.367 47.4503 45.8334 46.875 45.8334H10.4166C5.81427 45.8334 2.08331 42.1025 2.08331 37.5001V13.5417C2.08331 8.36408 6.28064 4.16675 11.4583 4.16675C12.0336 4.16675 12.5 4.63312 12.5 5.20841V12.5001H33.3333V5.23908C33.3333 4.66378 33.7997 4.19741 34.375 4.19741H42.7083C43.2836 4.19741 43.75 4.66378 43.75 5.23908V12.5001ZM33.3333 18.7501H32.2916C31.7164 18.7501 31.25 19.2165 31.25 19.7917V26.0417C31.25 26.617 31.7164 27.0834 32.2916 27.0834H33.3333V18.7501ZM4.16665 31.9879C5.69361 30.2579 7.9277 29.1667 10.4166 29.1667V6.32392C6.88301 6.82937 4.16665 9.86834 4.16665 13.5417V31.9879ZM17.7083 16.6667H23.9583C25.6842 16.6667 27.0833 18.0659 27.0833 19.7917V26.0417C27.0833 27.7676 25.6842 29.1667 23.9583 29.1667H17.7083C15.9824 29.1667 14.5833 27.7676 14.5833 26.0417V19.7917C14.5833 18.0659 15.9824 16.6667 17.7083 16.6667ZM17.7083 18.7501C17.133 18.7501 16.6666 19.2165 16.6666 19.7917V26.0417C16.6666 26.617 17.133 27.0834 17.7083 27.0834H23.9583C24.5336 27.0834 25 26.617 25 26.0417V19.7917C25 19.2165 24.5336 18.7501 23.9583 18.7501H17.7083ZM15.625 35.4167C15.0497 35.4167 14.5833 34.9504 14.5833 34.3751C14.5833 33.7998 15.0497 33.3334 15.625 33.3334H30.2083C30.7836 33.3334 31.25 33.7998 31.25 34.3751C31.25 34.9504 30.7836 35.4167 30.2083 35.4167H15.625ZM15.625 39.5834C15.0497 39.5834 14.5833 39.117 14.5833 38.5417C14.5833 37.9664 15.0497 37.5001 15.625 37.5001H32.2916C32.8669 37.5001 33.3333 37.9664 33.3333 38.5417C33.3333 39.117 32.8669 39.5834 32.2916 39.5834H15.625Z" fill="white"/>
</svg>
