<svg width="32" height="32" viewBox="0 0 32 32" fill="none" xmlns="http://www.w3.org/2000/svg">
<path fill-rule="evenodd" clip-rule="evenodd" d="M25.3333 5.33334C27.5424 5.33334 29.3333 7.1242 29.3333 9.33334V22.6667C29.3333 24.8758 27.5424 26.6667 25.3333 26.6667H6.66663C4.45749 26.6667 2.66663 24.8758 2.66663 22.6667V9.33334C2.66663 7.1242 4.45749 5.33334 6.66663 5.33334H25.3333ZM26.6666 9.77068L16.878 18.3368C16.4172 18.74 15.748 18.7736 15.2525 18.4376L15.122 18.3368L5.33329 9.77201V22.6667C5.33329 23.4031 5.93025 24 6.66663 24H25.3333C26.0697 24 26.6666 23.4031 26.6666 22.6667V9.77068ZM24.64 8.00001H7.35729L16 15.5617L24.64 8.00001Z" fill="white"/>
</svg>
