<svg width="32" height="32" viewBox="0 0 32 32" fill="none" xmlns="http://www.w3.org/2000/svg">
<path d="M21.3333 21.3334C24.2789 21.3334 26.6667 18.9456 26.6667 16.0001C26.6667 13.0546 24.2789 10.6667 21.3333 10.6667C18.3878 10.6667 16 13.0546 16 16.0001C16 18.9456 18.3878 21.3334 21.3333 21.3334Z" fill="#19BCFE"/>
<path fill-rule="evenodd" clip-rule="evenodd" d="M10.6666 31.9999C13.6122 31.9999 16 29.6121 16 26.6666C16 25.8625 16 24.0847 16 21.3333C13.604 21.3333 11.8263 21.3333 10.6666 21.3333C7.72113 21.3333 5.33331 23.7211 5.33331 26.6666C5.33331 29.6121 7.72113 31.9999 10.6666 31.9999Z" fill="#09CF83"/>
<path fill-rule="evenodd" clip-rule="evenodd" d="M10.6666 21.3334H16V10.6667C13.4263 10.6667 11.6485 10.6667 10.6666 10.6667C7.72113 10.6667 5.33331 13.0546 5.33331 16.0001C5.33331 18.9456 7.72113 21.3334 10.6666 21.3334Z" fill="#A259FF"/>
<path fill-rule="evenodd" clip-rule="evenodd" d="M10.6666 10.6667H16V0C13.4263 0 11.6485 0 10.6666 0C7.72113 0 5.33331 2.38781 5.33331 5.33333C5.33331 8.27885 7.72113 10.6667 10.6666 10.6667Z" fill="#F24E1E"/>
<path fill-rule="evenodd" clip-rule="evenodd" d="M21.3333 10.6667H16V0H21.3333C24.2789 0 26.6667 2.38781 26.6667 5.33333C26.6667 8.27885 24.2789 10.6667 21.3333 10.6667Z" fill="#FF7262"/>
</svg>
