<svg width="32" height="32" viewBox="0 0 32 32" fill="none" xmlns="http://www.w3.org/2000/svg">
<path fill-rule="evenodd" clip-rule="evenodd" d="M9.95329 1.42134C11.5177 1.34964 12.0164 1.33334 16 1.33334C19.9844 1.33334 20.4823 1.35045 22.0459 1.42134C23.6079 1.49224 24.6746 1.74076 25.6075 2.10334C26.586 2.47176 27.4724 3.049 28.2051 3.7949C28.9511 4.52748 29.5284 5.41396 29.8967 6.39253C30.2592 7.32549 30.507 8.39209 30.5787 9.95326C30.6504 11.5177 30.6667 12.0164 30.6667 16C30.6667 19.9836 30.6496 20.4823 30.5787 22.0468C30.5078 23.6079 30.2592 24.6745 29.8967 25.6075C29.5219 26.5715 29.0199 27.3903 28.2051 28.2051C27.4726 28.9511 26.586 29.5284 25.6075 29.8967C24.6746 30.2592 23.6079 30.5069 22.0468 30.5787C20.4823 30.6504 19.9836 30.6667 16 30.6667C12.0164 30.6667 11.5177 30.6496 9.95329 30.5787C8.39212 30.5077 7.32552 30.2592 6.39256 29.8967C5.42863 29.5219 4.60975 29.0199 3.79493 28.2051C3.04889 27.4725 2.47161 26.586 2.10337 25.6075C1.74079 24.6745 1.49308 23.6079 1.42137 22.0468C1.34967 20.4823 1.33337 19.9844 1.33337 16C1.33337 12.0156 1.35048 11.5177 1.42137 9.95409C1.49227 8.39209 1.74079 7.32549 2.10337 6.39253C2.47179 5.41402 3.04903 4.52758 3.79493 3.7949C4.52749 3.04886 5.41397 2.47158 6.39256 2.10334C7.32552 1.74076 8.39212 1.49305 9.95329 1.42134ZM21.927 4.06134C20.3804 3.99126 19.916 3.97578 16 3.97578C12.084 3.97578 11.6196 3.99126 10.0731 4.06134C8.64308 4.12653 7.86656 4.36526 7.34996 4.56653C6.66552 4.83216 6.17663 5.14993 5.66329 5.66326C5.15079 6.1766 4.83219 6.66549 4.56656 7.34993C4.36529 7.86653 4.12656 8.64305 4.06137 10.073C3.99129 11.6196 3.97581 12.084 3.97581 16C3.97581 19.916 3.99129 20.3804 4.06137 21.9269C4.12656 23.3569 4.36529 24.1335 4.56656 24.6501C4.80152 25.2872 5.17629 25.8635 5.66329 26.3368C6.13649 26.8237 6.71285 27.1985 7.34996 27.4335C7.86656 27.6348 8.64308 27.8735 10.0731 27.9387C11.6196 28.0088 12.0832 28.0243 16 28.0243C19.9168 28.0243 20.3804 28.0088 21.927 27.9387C23.357 27.8735 24.1335 27.6348 24.6502 27.4335C25.3346 27.1679 25.8235 26.8501 26.3368 26.3368C26.8238 25.8636 27.1986 25.2872 27.4335 24.6501C27.6348 24.1335 27.8735 23.3569 27.9387 21.9269C28.0088 20.3804 28.0243 19.916 28.0243 16C28.0243 12.084 28.0088 11.6196 27.9387 10.073C27.8735 8.64305 27.6348 7.86653 27.4335 7.34993C27.1679 6.66549 26.8502 6.1766 26.3368 5.66326C25.8235 5.15076 25.3346 4.83216 24.6502 4.56653C24.1335 4.36526 23.357 4.12653 21.927 4.06134ZM14.1274 20.5212C14.7211 20.7672 15.3574 20.8937 16 20.8937C17.298 20.8937 18.5427 20.3781 19.4604 19.4604C20.3783 18.5427 20.8939 17.2979 20.8939 16C20.8939 14.7021 20.3783 13.4573 19.4604 12.5396C18.5427 11.6218 17.298 11.1062 16 11.1062C15.3574 11.1062 14.7211 11.2328 14.1274 11.4787C13.5335 11.7247 12.9941 12.0851 12.5397 12.5396C12.0852 12.994 11.7247 13.5335 11.4788 14.1272C11.2329 14.7209 11.1063 15.3573 11.1063 16C11.1063 16.6427 11.2329 17.2791 11.4788 17.8728C11.7247 18.4665 12.0852 19.006 12.5397 19.4604C12.9941 19.9148 13.5335 20.2753 14.1274 20.5212ZM10.6694 10.6694C12.0832 9.25558 14.0007 8.46133 16 8.46133C17.9995 8.46133 19.917 9.25558 21.3307 10.6694C22.7444 12.0831 23.5387 14.0007 23.5387 16C23.5387 17.9993 22.7444 19.9168 21.3307 21.3307C19.917 22.7444 17.9995 23.5387 16 23.5387C14.0007 23.5387 12.0832 22.7444 10.6694 21.3307C9.25567 19.9168 8.46141 17.9993 8.46141 16C8.46141 14.0007 9.25567 12.0831 10.6694 10.6694ZM25.2103 9.58452C25.5444 9.25032 25.7322 8.79706 25.7322 8.32445C25.7322 7.85182 25.5444 7.39857 25.2103 7.06438C24.876 6.7302 24.4228 6.54245 23.9502 6.54245C23.4776 6.54245 23.0243 6.7302 22.6902 7.06438C22.3559 7.39857 22.1682 7.85182 22.1682 8.32445C22.1682 8.79706 22.3559 9.25032 22.6902 9.58452C23.0243 9.9187 23.4776 10.1065 23.9502 10.1065C24.4228 10.1065 24.876 9.9187 25.2103 9.58452Z" fill="white"/>
</svg>
