<svg width="32" height="32" viewBox="0 0 32 32" fill="none" xmlns="http://www.w3.org/2000/svg">
<path d="M2 2H30V30H2V2Z" fill="#F5DE19"/>
<path d="M20.809 23.8749C21.0476 24.3595 21.4182 24.7668 21.8782 25.0499C22.3383 25.333 22.8689 25.4803 23.409 25.4749C24.499 25.4749 25.196 24.9299 25.196 24.1749C25.196 23.2749 24.48 22.9529 23.28 22.4279L22.622 22.1459C20.722 21.3369 19.462 20.3239 19.462 18.1819C19.462 16.2089 20.962 14.7059 23.315 14.7059C24.0767 14.6509 24.8378 14.8214 25.5032 15.1961C26.1687 15.5708 26.7091 16.1331 27.057 16.8129L25 18.1279C24.866 17.7908 24.6327 17.5024 24.3311 17.301C24.0295 17.0995 23.6737 16.9945 23.311 16.9999C23.1528 16.9841 22.993 17.0014 22.8418 17.0507C22.6906 17.1 22.5513 17.1803 22.4329 17.2864C22.3145 17.3925 22.2194 17.5222 22.1538 17.667C22.0883 17.8119 22.0536 17.9689 22.052 18.1279C22.052 18.9169 22.541 19.2369 23.67 19.7279L24.328 20.0099C26.564 20.9689 27.828 21.9459 27.828 24.1429C27.828 26.5119 25.967 27.8099 23.468 27.8099C22.4943 27.8719 21.5235 27.6509 20.6726 27.1734C19.8218 26.6959 19.1273 25.9824 18.673 25.1189L20.809 23.8749ZM11.514 24.1029C11.927 24.8359 12.303 25.4559 13.207 25.4559C14.071 25.4559 14.617 25.1179 14.617 23.8029V14.8559H17.248V23.8379C17.248 26.5619 15.648 27.8019 13.319 27.8019C12.4958 27.8469 11.6782 27.6417 10.9737 27.2134C10.2692 26.785 9.71086 26.1535 9.37201 25.4019L11.514 24.1029Z" fill="black"/>
</svg>
