<svg width="85" height="85" viewBox="0 0 85 85" fill="none" xmlns="http://www.w3.org/2000/svg">
<path d="M78.6091 42.5H43.8295C43.8295 21.8902 35.0492 21.8902 26.5598 21.8902C18.3959 21.8902 10.6781 21.8902 10.6781 2.65625H9.29688C9.29688 23.2661 18.0771 23.2661 26.5598 23.2661C34.7305 23.2661 42.4482 23.2661 42.4482 42.5H6.39227C4.32969 42.5 2.65625 44.2903 2.65625 46.4817V78.362C2.65625 80.5667 4.32969 82.3438 6.39227 82.3438H78.6091C80.6703 82.3438 82.3438 80.5667 82.3438 78.362V46.4817C82.3438 44.2903 80.6703 42.5 78.6091 42.5V42.5ZM73.1478 45.1589H75.5995C77.5067 45.1589 77.5067 47.8178 75.5995 47.8178H73.1478C71.242 47.8178 71.242 45.1589 73.1478 45.1589V45.1589ZM65.1844 45.1589H67.6361C69.5433 45.1589 69.5433 47.8178 67.6361 47.8178H65.1844C63.2785 47.8178 63.2785 45.1589 65.1844 45.1589V45.1589ZM69.0625 59.763V62.4219C69.0625 63.1616 68.4662 63.758 67.7397 63.758H65.0808C64.341 63.758 63.7447 63.1616 63.7447 62.4219V59.763C63.7447 59.0365 64.341 58.4402 65.0808 58.4402H67.7397C68.4662 58.4402 69.0625 59.0365 69.0625 59.763ZM61.0991 51.7995C61.0991 51.0598 61.6954 50.4767 62.4219 50.4767H65.0808C65.8073 50.4767 66.4036 51.0598 66.4036 51.7995V54.4584C66.4036 55.1849 65.8073 55.7812 65.0808 55.7812H62.4219C61.6954 55.7812 61.0991 55.1849 61.0991 54.4584V51.7995ZM57.2077 45.1589H59.6594C61.5666 45.1589 61.5666 47.8178 59.6594 47.8178H57.2077C55.3018 47.8178 55.3018 45.1589 57.2077 45.1589ZM61.0991 59.763V62.4219C61.0991 63.1616 60.5027 63.758 59.763 63.758H57.1041C56.3776 63.758 55.7812 63.1616 55.7812 62.4219V59.763C55.7812 59.0365 56.3776 58.4402 57.1041 58.4402H59.763C60.5027 58.4402 61.0991 59.0365 61.0991 59.763ZM54.4518 50.4767H57.1041C57.8438 50.4767 58.4402 51.0598 58.4402 51.7995V54.4584C58.4402 55.1849 57.8438 55.7812 57.1041 55.7812H54.4518C53.7187 55.7812 53.1223 55.1849 53.1223 54.4584V51.7995C53.1223 51.0598 53.7187 50.4767 54.4518 50.4767ZM50.4701 67.7397C50.4701 66.9999 51.0664 66.4036 51.7995 66.4036H54.4518C55.1849 66.4036 55.7812 66.9999 55.7812 67.7397V70.3986C55.7812 71.1251 55.1849 71.7214 54.4518 71.7214H51.7995C51.0664 71.7214 50.4701 71.1251 50.4701 70.3986V67.7397ZM49.1406 63.758C48.4075 63.758 47.8112 63.1616 47.8112 62.4219V59.763C47.8112 59.0365 48.4075 58.4402 49.1406 58.4402H51.7995C52.526 58.4402 53.1223 59.0365 53.1223 59.763V62.4219C53.1223 63.1616 52.526 63.758 51.7995 63.758H49.1406ZM49.2442 45.1589H51.6959C53.6031 45.1589 53.6031 47.8178 51.6959 47.8178H49.2442C47.3384 47.8178 47.3384 45.1589 49.2442 45.1589ZM45.1589 51.7995C45.1589 51.0598 45.7552 50.4767 46.4817 50.4767H49.1406C49.8737 50.4767 50.4701 51.0598 50.4701 51.7995V54.4584C50.4701 55.1849 49.8737 55.7812 49.1406 55.7812H46.4817C45.7552 55.7812 45.1589 55.1849 45.1589 54.4584V51.7995ZM47.8112 67.7397V70.3986C47.8112 71.1251 47.2148 71.7214 46.4817 71.7214H43.8295C43.0963 71.7214 42.5 71.1251 42.5 70.3986V67.7397C42.5 66.9999 43.0963 66.4036 43.8295 66.4036H46.4817C47.2148 66.4036 47.8112 66.9999 47.8112 67.7397ZM45.1589 62.4219C45.1589 63.1616 44.5626 63.758 43.8295 63.758H41.1705C40.4374 63.758 39.8411 63.1616 39.8411 62.4219V59.763C39.8411 59.0365 40.4374 58.4402 41.1705 58.4402H43.8295C44.5626 58.4402 45.1589 59.0365 45.1589 59.763V62.4219ZM41.2741 45.1589H43.7259C45.633 45.1589 45.633 47.8178 43.7259 47.8178H41.2741C39.3683 47.8178 39.3683 45.1589 41.2741 45.1589ZM37.1888 51.7995C37.1888 51.0598 37.7852 50.4767 38.5183 50.4767H41.1705C41.9037 50.4767 42.5 51.0598 42.5 51.7995V54.4584C42.5 55.1849 41.9037 55.7812 41.1705 55.7812H38.5183C37.7852 55.7812 37.1888 55.1849 37.1888 54.4584V51.7995ZM39.8411 67.7397V70.3986C39.8411 71.1251 39.2448 71.7214 38.5183 71.7214H35.8594C35.1263 71.7214 34.5299 71.1251 34.5299 70.3986V67.7397C34.5299 66.9999 35.1263 66.4036 35.8594 66.4036H38.5183C39.2448 66.4036 39.8411 66.9999 39.8411 67.7397ZM37.1888 62.4219C37.1888 63.1616 36.5925 63.758 35.8594 63.758H33.2005C32.474 63.758 31.8777 63.1616 31.8777 62.4219V59.763C31.8777 59.0365 32.474 58.4402 33.2005 58.4402H35.8594C36.5925 58.4402 37.1888 59.0365 37.1888 59.763V62.4219ZM33.3041 45.1589H35.7558C37.663 45.1589 37.663 47.8178 35.7558 47.8178H33.3041C31.3982 47.8178 31.3982 45.1589 33.3041 45.1589ZM29.2188 51.7995C29.2188 51.0598 29.8151 50.4767 30.5482 50.4767H33.2005C33.9336 50.4767 34.5299 51.0598 34.5299 51.7995V54.4584C34.5299 55.1849 33.9336 55.7812 33.2005 55.7812H30.5482C29.8151 55.7812 29.2188 55.1849 29.2188 54.4584V51.7995ZM25.334 45.1589H27.7923C29.6929 45.1589 29.6929 47.8178 27.7923 47.8178H25.334C23.4281 47.8178 23.4281 45.1589 25.334 45.1589ZM29.2188 59.763V62.4219C29.2188 63.1616 28.6224 63.758 27.8893 63.758H25.237C24.5039 63.758 23.9076 63.1616 23.9076 62.4219V59.763C23.9076 59.0365 24.5039 58.4402 25.237 58.4402H27.8893C28.6224 58.4402 29.2188 59.0365 29.2188 59.763ZM22.5781 50.4767H25.237C25.9702 50.4767 26.5598 51.0598 26.5598 51.7995V54.4584C26.5598 55.1849 25.9702 55.7812 25.237 55.7812H22.5781C21.845 55.7812 21.2487 55.1849 21.2487 54.4584V51.7995C21.2487 51.0598 21.845 50.4767 22.5781 50.4767ZM17.3639 45.1589H19.8223C21.7295 45.1589 21.7295 47.8178 19.8223 47.8178H17.3639C15.4647 47.8178 15.4647 45.1589 17.3639 45.1589V45.1589ZM21.2487 59.763V62.4219C21.2487 63.1616 20.6523 63.758 19.9192 63.758H17.267C16.5338 63.758 15.9375 63.1616 15.9375 62.4219V59.763C15.9375 59.0365 16.5338 58.4402 17.267 58.4402H19.9192C20.6523 58.4402 21.2487 59.0365 21.2487 59.763ZM14.608 50.4767H17.267C18.0001 50.4767 18.5964 51.0598 18.5964 51.7995V54.4584C18.5964 55.1849 18.0001 55.7812 17.267 55.7812H14.608C13.8749 55.7812 13.2786 55.1849 13.2786 54.4584V51.7995C13.2786 51.0598 13.8749 50.4767 14.608 50.4767ZM9.40047 45.1589H11.8522C13.7594 45.1589 13.7594 47.8178 11.8522 47.8178H9.40047C7.49461 47.8178 7.49461 45.1589 9.40047 45.1589ZM5.31516 51.7995C5.31516 51.0598 5.90484 50.4767 6.63797 50.4767H9.29688C10.03 50.4767 10.6263 51.0598 10.6263 51.7995V54.4584C10.6263 55.1849 10.03 55.7812 9.29688 55.7812H6.63797C5.90484 55.7812 5.31516 55.1849 5.31516 54.4584V51.7995ZM5.31516 59.763C5.31516 59.0365 5.85969 58.4402 6.54102 58.4402H12.0527C12.7341 58.4402 13.2786 59.0365 13.2786 59.763V62.4219C13.2786 63.1616 12.7341 63.758 12.0527 63.758H6.54102C5.85969 63.758 5.31516 63.1616 5.31516 62.4219V59.763ZM13.2786 78.362C13.2786 79.0885 12.7341 79.6848 12.0527 79.6848H6.54102C5.85969 79.6848 5.31516 79.0885 5.31516 78.362V75.7031C5.31516 74.9766 5.85969 74.3803 6.54102 74.3803H12.0527C12.7341 74.3803 13.2786 74.9766 13.2786 75.7031V78.362ZM14.7568 71.7214H6.49586C5.84109 71.7214 5.31516 71.1251 5.31516 70.3986V67.7397C5.31516 66.9999 5.84109 66.4036 6.49586 66.4036H14.7581C15.4063 66.4036 15.9388 66.9999 15.9388 67.7397V70.3986C15.9375 71.1251 15.4063 71.7214 14.7568 71.7214V71.7214ZM21.2487 78.362C21.2487 79.0885 20.6523 79.6848 19.9192 79.6848H17.267C16.5338 79.6848 15.9375 79.0885 15.9375 78.362V75.7031C15.9375 74.9634 16.5338 74.3803 17.267 74.3803H19.9192C20.6523 74.3803 21.2487 74.9634 21.2487 75.7031V78.362ZM22.5781 71.7214H19.9192C19.1927 71.7214 18.5964 71.1251 18.5964 70.3986V67.7397C18.5964 66.9999 19.1927 66.4036 19.9192 66.4036H22.5781C23.3112 66.4036 23.9076 66.9999 23.9076 67.7397V70.3986C23.9076 71.1251 23.3112 71.7214 22.5781 71.7214ZM29.2188 78.362C29.2188 79.0885 28.6224 79.6848 27.8893 79.6848H25.237C24.5039 79.6848 23.9076 79.0885 23.9076 78.362V75.7031C23.9076 74.9634 24.5039 74.3803 25.237 74.3803H27.8893C28.6224 74.3803 29.2188 74.9634 29.2188 75.7031V78.362ZM30.5482 71.7214H27.8893C27.1562 71.7214 26.5598 71.1251 26.5598 70.3986V67.7397C26.5598 66.9999 27.1562 66.4036 27.8893 66.4036H30.5482C31.2813 66.4036 31.8777 66.9999 31.8777 67.7397V70.3986C31.8777 71.1251 31.2813 71.7214 30.5482 71.7214ZM58.4402 78.362C58.4402 79.0885 57.9474 79.6848 57.3245 79.6848H32.98C32.3704 79.6848 31.8777 79.0885 31.8777 78.362V75.7031C31.8777 74.9766 32.3704 74.3803 32.98 74.3803H57.3245C57.9474 74.3803 58.4402 74.9766 58.4402 75.7031V78.362ZM58.4402 70.3986V67.7397C58.4402 66.9999 59.0365 66.4036 59.763 66.4036H62.4219C63.1484 66.4036 63.7447 66.9999 63.7447 67.7397V70.3986C63.7447 71.1251 63.1484 71.7214 62.4219 71.7214H59.763C59.0365 71.7214 58.4402 71.1251 58.4402 70.3986ZM66.4036 78.362C66.4036 79.0885 65.8073 79.6848 65.0808 79.6848H62.4219C61.6954 79.6848 61.0991 79.0885 61.0991 78.362V75.7031C61.0991 74.9634 61.6954 74.3803 62.4219 74.3803H65.0808C65.8073 74.3803 66.4036 74.9634 66.4036 75.7031V78.362ZM79.6848 78.362C79.6848 79.0885 79.1536 79.6848 78.5041 79.6848H70.2419C69.5938 79.6848 69.0625 79.0885 69.0625 78.362V75.7031C69.0625 74.9634 69.5937 74.3803 70.2432 74.3803H78.5055C79.1536 74.3803 79.6862 74.9634 79.6862 75.7031V78.362H79.6848ZM79.6848 70.3986C79.6848 71.1251 79.2054 71.7214 78.5958 71.7214H67.494C66.8977 71.7214 66.4049 71.1251 66.4049 70.3986V67.7397C66.4049 66.9999 66.8977 66.4036 67.494 66.4036H78.5958C79.2054 66.4036 79.6848 66.9999 79.6848 67.7397V70.3986ZM79.6848 62.4219C79.6848 63.1616 79.1403 63.758 78.4656 63.758H72.9406C72.2659 63.758 71.7214 63.1616 71.7214 62.4219V59.763C71.7214 59.0365 72.2659 58.4402 72.9406 58.4402H78.4656C79.1403 58.4402 79.6848 59.0365 79.6848 59.763V62.4219ZM79.6848 54.4584C79.6848 55.1849 79.1536 55.7812 78.5041 55.7812H70.2419C69.5938 55.7812 69.0625 55.1849 69.0625 54.4584V51.7995C69.0625 51.0598 69.5937 50.4767 70.2432 50.4767H78.5055C79.1536 50.4767 79.6862 51.0598 79.6862 51.7995V54.4584H79.6848Z" fill="white"/>
</svg>
