<svg width="66" height="66" viewBox="0 0 66 66" fill="none" xmlns="http://www.w3.org/2000/svg">
<path d="M38.1562 4.125H27.8438C23.4692 4.12994 19.2752 5.86991 16.1819 8.96319C13.0887 12.0565 11.3487 16.2504 11.3438 20.625V45.375C11.3487 49.7496 13.0887 53.9435 16.1819 57.0368C19.2752 60.1301 23.4692 61.8701 27.8438 61.875H38.1562C42.5308 61.8701 46.7248 60.1301 49.8181 57.0368C52.9113 53.9435 54.6513 49.7496 54.6562 45.375V20.625C54.6513 16.2504 52.9113 12.0565 49.8181 8.96319C46.7248 5.86991 42.5308 4.12994 38.1562 4.125V4.125ZM50.5312 20.625V24.75H35.0625V8.25H38.1562C41.4372 8.25373 44.5826 9.55872 46.9026 11.8787C49.2225 14.1986 50.5275 17.3441 50.5312 20.625V20.625ZM27.8438 8.25H30.9375V24.75H15.4688V20.625C15.4725 17.3441 16.7775 14.1986 19.0974 11.8787C21.4174 9.55872 24.5628 8.25373 27.8438 8.25V8.25ZM38.1562 57.75H27.8438C24.5628 57.7463 21.4174 56.4413 19.0974 54.1213C16.7775 51.8014 15.4725 48.6559 15.4688 45.375V28.875H50.5312V45.375C50.5275 48.6559 49.2225 51.8014 46.9026 54.1213C44.5826 56.4413 41.4372 57.7463 38.1562 57.75V57.75Z" fill="white"/>
</svg>
