<svg width="62" height="62" viewBox="0 0 62 62" fill="none" xmlns="http://www.w3.org/2000/svg">
<g opacity="0.7">
<path d="M52.3125 46.5C51.4491 46.5044 50.5978 46.7036 49.822 47.0828L41.4898 38.75H34.875V42.625H39.8852L47.0822 49.8224C46.7036 50.5982 46.5046 51.4493 46.5 52.3125C46.5 53.4621 46.8409 54.5859 47.4796 55.5418C48.1183 56.4976 49.0261 57.2426 50.0882 57.6826C51.1502 58.1225 52.3189 58.2376 53.4465 58.0133C54.574 57.789 55.6097 57.2355 56.4226 56.4226C57.2355 55.6097 57.789 54.574 58.0133 53.4465C58.2376 52.3189 58.1225 51.1502 57.6826 50.0882C57.2426 49.0261 56.4976 48.1183 55.5418 47.4796C54.5859 46.8409 53.4621 46.5 52.3125 46.5ZM52.3125 54.25C51.9293 54.25 51.5547 54.1364 51.2361 53.9235C50.9175 53.7106 50.6691 53.408 50.5225 53.0539C50.3758 52.6999 50.3375 52.3103 50.4122 51.9345C50.487 51.5587 50.6715 51.2134 50.9425 50.9425C51.2134 50.6715 51.5587 50.487 51.9345 50.4122C52.3103 50.3375 52.6999 50.3758 53.0539 50.5225C53.408 50.6691 53.7106 50.9175 53.9235 51.2361C54.1364 51.5547 54.25 51.9293 54.25 52.3125C54.2495 52.8262 54.0453 53.3188 53.682 53.682C53.3188 54.0453 52.8262 54.2495 52.3125 54.25V54.25Z" fill="white"/>
<path d="M52.3125 25.1875C51.1144 25.1911 49.9467 25.5656 48.9699 26.2594C47.9931 26.9532 47.2551 27.9324 46.8571 29.0625H34.875V32.9375H46.8571C47.2141 33.9393 47.8396 34.8238 48.6653 35.4942C49.4909 36.1645 50.485 36.5951 51.5388 36.7388C52.5926 36.8824 53.6656 36.7337 54.6406 36.3088C55.6156 35.884 56.455 35.1993 57.0672 34.3296C57.6794 33.4599 58.0408 32.4387 58.1119 31.3775C58.183 30.3163 57.961 29.256 57.4703 28.3125C56.9795 27.3689 56.2389 26.5784 55.3293 26.0273C54.4196 25.4762 53.376 25.1857 52.3125 25.1875ZM52.3125 32.9375C51.9293 32.9375 51.5547 32.8239 51.2361 32.611C50.9175 32.3981 50.6691 32.0955 50.5225 31.7415C50.3758 31.3874 50.3375 30.9979 50.4122 30.622C50.487 30.2462 50.6715 29.901 50.9425 29.63C51.2134 29.359 51.5587 29.1745 51.9345 29.0997C52.3103 29.025 52.6999 29.0633 53.0539 29.21C53.408 29.3566 53.7106 29.605 53.9235 29.9236C54.1364 30.2422 54.25 30.6168 54.25 31C54.2495 31.5137 54.0453 32.0063 53.682 32.3695C53.3188 32.7328 52.8262 32.937 52.3125 32.9375V32.9375Z" fill="white"/>
<path d="M52.3125 3.875C50.7714 3.87669 49.294 4.48962 48.2043 5.57931C47.1146 6.669 46.5017 8.14645 46.5 9.6875C46.5067 10.6157 46.7381 11.5284 47.1744 12.3477L39.9042 19.375H34.875V23.25H41.4708L49.9937 15.011C50.7855 15.3561 51.6442 15.5204 52.5074 15.4918C53.3707 15.4632 54.2167 15.2426 54.9839 14.8458C55.7511 14.4491 56.4202 13.8864 56.9425 13.1985C57.4648 12.5106 57.8272 11.7149 58.0032 10.8694C58.1793 10.0238 58.1646 9.14961 57.9603 8.31043C57.756 7.47125 57.3671 6.68818 56.822 6.01821C56.2769 5.34825 55.5893 4.80824 54.8092 4.4375C54.0291 4.06675 53.1762 3.87459 52.3125 3.875V3.875ZM52.3125 11.625C51.9293 11.625 51.5547 11.5114 51.2361 11.2985C50.9175 11.0856 50.6691 10.783 50.5225 10.4289C50.3758 10.0749 50.3375 9.68535 50.4122 9.30951C50.487 8.93367 50.6715 8.58845 50.9425 8.31748C51.2134 8.04652 51.5587 7.86199 51.9345 7.78723C52.3103 7.71247 52.6999 7.75084 53.0539 7.89748C53.408 8.04413 53.7106 8.29246 53.9235 8.61108C54.1364 8.9297 54.25 9.3043 54.25 9.6875C54.2495 10.2012 54.0453 10.6938 53.682 11.057C53.3188 11.4203 52.8262 11.6245 52.3125 11.625V11.625Z" fill="white"/>
<path d="M34.875 11.625H38.75V7.75H34.875C33.7708 7.75371 32.6803 7.99478 31.6774 8.45687C30.6746 8.91896 29.7828 9.59126 29.0625 10.4282C28.3422 9.59126 27.4504 8.91896 26.4476 8.45687C25.4447 7.99478 24.3542 7.75371 23.25 7.75H21.3125C16.6894 7.75513 12.257 9.59393 8.98799 12.863C5.71893 16.132 3.88013 20.5644 3.875 25.1875V36.8125C3.88013 41.4356 5.71893 45.868 8.98799 49.137C12.257 52.4061 16.6894 54.2449 21.3125 54.25H23.25C24.3542 54.2463 25.4447 54.0052 26.4476 53.5431C27.4504 53.081 28.3422 52.4087 29.0625 51.5718C29.7828 52.4087 30.6746 53.081 31.6774 53.5431C32.6803 54.0052 33.7708 54.2463 34.875 54.25H38.75V50.375H34.875C33.8476 50.3738 32.8627 49.9652 32.1363 49.2387C31.4098 48.5123 31.0012 47.5274 31 46.5V15.5C31.0012 14.4726 31.4098 13.4877 32.1363 12.7613C32.8627 12.0348 33.8476 11.6262 34.875 11.625V11.625ZM23.25 50.375H21.3125C18.0544 50.3693 14.9072 49.1917 12.4456 47.0574C9.98396 44.923 8.37231 41.9744 7.905 38.75H11.625V34.875H7.75V27.125H13.5625C15.1036 27.1233 16.581 26.5104 17.6707 25.4207C18.7604 24.331 19.3733 22.8536 19.375 21.3125V17.4375H15.5V21.3125C15.4995 21.8262 15.2953 22.3188 14.932 22.682C14.5688 23.0453 14.0762 23.2495 13.5625 23.25H7.905C8.37231 20.0256 9.98396 17.077 12.4456 14.9426C14.9072 12.8083 18.0544 11.6307 21.3125 11.625H23.25C24.2774 11.6262 25.2623 12.0348 25.9887 12.7613C26.7152 13.4877 27.1238 14.4726 27.125 15.5V23.25H23.25V27.125H27.125V34.875H23.25C21.7089 34.8767 20.2315 35.4896 19.1418 36.5793C18.0521 37.669 17.4392 39.1464 17.4375 40.6875V44.5625H21.3125V40.6875C21.313 40.1738 21.5172 39.6812 21.8805 39.318C22.2437 38.9547 22.7363 38.7505 23.25 38.75H27.125V46.5C27.1238 47.5274 26.7152 48.5123 25.9887 49.2387C25.2623 49.9652 24.2774 50.3738 23.25 50.375V50.375Z" fill="white"/>
</g>
</svg>
