<svg width="32" height="32" viewBox="0 0 32 32" fill="none" xmlns="http://www.w3.org/2000/svg">
<path d="M25.514 12.8461C25.462 11.9081 25.723 11.0211 25.305 10.2921C24.262 8.46707 21.656 7.42507 16.442 7.42507V7.37207V7.42407C10.707 7.42407 8.25701 8.46707 7.21501 10.2911C6.86073 11.0939 6.70008 11.9687 6.74601 12.8451C6.55354 13.647 6.46581 14.4706 6.48501 15.2951C6.64101 16.4421 6.74601 17.5891 6.90201 18.6311C7.05801 19.5171 8.31001 20.1951 8.46601 21.0311C8.77901 23.2731 10.76 24.3151 16.494 24.3151V24.5761H16.394V24.3151C21.607 24.3151 23.794 23.2721 24.11 21.0311C24.21 20.1971 25.257 19.5191 25.41 18.6311C25.566 17.5881 25.619 16.4411 25.775 15.2951C25.7739 14.4719 25.6864 13.651 25.514 12.8461Z" fill="#EFCCA3"/>
<path d="M16.182 13.6799C17.0349 13.7579 17.8222 14.1703 18.372 14.8269C19.102 15.4529 20.301 15.8699 20.822 16.4429C21.4564 16.9689 21.9418 17.6519 22.23 18.4239C22.4293 19.1549 22.5345 19.9083 22.543 20.6659C22.543 20.9269 22.699 20.8749 23.116 20.6659C23.9419 20.1618 24.6814 19.528 25.306 18.7889C25.15 19.6749 24.055 20.4569 23.951 21.2889C23.638 23.5309 21.451 24.6249 16.079 24.6249H16.392" fill="#CCAC8D"/>
<path d="M19.519 11.9081C19.728 12.5861 20.405 14.9321 19.05 14.1501C19.5443 14.5384 19.8782 15.0952 19.988 15.7141C20.0535 16.046 20.2096 16.3532 20.4391 16.6018C20.6685 16.8503 20.9624 17.0304 21.288 17.1221C22.1884 17.2556 23.1053 17.0309 23.842 16.4961C24.2743 16.0818 24.5706 15.546 24.6917 14.9595C24.8128 14.3731 24.7529 13.7637 24.52 13.2121C24.3614 12.7629 24.0743 12.3703 23.6943 12.083C23.3144 11.7957 22.8584 11.6264 22.383 11.5961C21.4 11.3341 19.31 11.1261 19.519 11.9081Z" fill="#CCAC8D"/>
<path d="M22.178 16.339C23.2434 16.339 24.107 15.4753 24.107 14.41C24.107 13.3446 23.2434 12.481 22.178 12.481C21.1127 12.481 20.249 13.3446 20.249 14.41C20.249 15.4753 21.1127 16.339 22.178 16.339Z" fill="black"/>
<path d="M21.656 14.0449C21.9438 14.0449 22.177 13.8117 22.177 13.5239C22.177 13.2362 21.9438 13.0029 21.656 13.0029C21.3683 13.0029 21.135 13.2362 21.135 13.5239C21.135 13.8117 21.3683 14.0449 21.656 14.0449Z" fill="white"/>
<path d="M19.206 14.3059C20.1868 14.994 21.0952 15.7801 21.917 16.6519C22.855 17.8519 22.855 18.0599 22.855 18.0599L22.177 18.3729C21.6702 17.3838 20.9382 16.5275 20.04 15.8729C18.84 15.1949 18.685 14.6219 18.685 14.6219L19.206 14.3059Z" fill="#EFCCA3"/>
<path d="M16.235 13.6799C15.3371 13.7556 14.5002 14.1648 13.889 14.8269C13.159 15.4529 11.856 15.8699 11.389 16.4429C10.7386 16.9654 10.2355 17.6481 9.92899 18.4239C9.72965 19.1549 9.62446 19.9083 9.61599 20.6659C9.61599 20.9269 9.66799 20.9789 8.98999 20.6659C8.15193 20.1786 7.40979 19.5426 6.79999 18.7889C6.95599 19.6749 8.05099 20.4569 8.15499 21.2889C8.46799 23.4789 10.655 24.5729 16.027 24.5729H16.392" fill="#CCAC8D"/>
<path d="M21.239 17.2769C20.6409 16.4834 19.8701 15.8363 18.9849 15.3847C18.0998 14.933 17.1235 14.6886 16.13 14.6699C15.1377 14.6948 14.1636 14.942 13.2794 15.3931C12.3952 15.8443 11.6235 16.488 11.021 17.2769C10.6197 17.6948 10.3176 18.1976 10.1371 18.748C9.95651 19.2985 9.90215 19.8826 9.97801 20.4569C9.97801 25.0969 11.594 23.6889 12.689 24.2629C13.7795 24.6268 14.9393 24.7339 16.078 24.5759C17.2167 24.7363 18.377 24.6291 19.467 24.2629C20.562 23.6899 22.178 25.0969 22.178 20.4569C22.3073 19.8908 22.2888 19.301 22.1244 18.7441C21.96 18.1872 21.6551 17.682 21.239 17.2769Z" fill="#56332B"/>
<path d="M16.026 15.9741C15.9867 16.8428 15.8289 17.7021 15.557 18.5281L16.13 18.3721L16.026 15.9741Z" fill="#442823"/>
<path d="M16.182 15.9741C16.2213 16.8428 16.3791 17.7021 16.651 18.5281L16.078 18.3721L16.182 15.9741Z" fill="#442823"/>
<path d="M14.358 15.4529C14.149 14.9319 14.931 14.0979 16.183 14.0979C17.435 14.0979 18.216 14.9319 18.008 15.4529C17.8 15.9739 16.965 16.1309 16.183 16.1309C15.348 16.1299 14.566 15.9739 14.358 15.4529Z" fill="#56332B"/>
<path d="M16.182 15.9739C16.182 15.8739 16.912 15.8739 17.329 15.6089C17.329 15.6089 16.495 15.8699 16.338 15.7649C16.2302 15.6695 16.1567 15.5412 16.129 15.3999C16.1013 15.5412 16.0279 15.6695 15.92 15.7649C15.764 15.8649 14.825 15.6089 14.825 15.6089C15.2339 15.6992 15.6351 15.8212 16.025 15.9739V16.3909C15.9924 17.0702 16.0259 17.7511 16.125 18.4239C16.281 18.6329 16.225 16.9639 16.225 16.3909C16.1882 16.2551 16.1737 16.1143 16.182 15.9739Z" fill="black"/>
<path d="M16.182 18.9451C16.7713 19.0237 17.329 19.2577 17.798 19.6231C17.3903 19.0947 16.8239 18.7109 16.182 18.5281C15.4459 18.6878 14.7954 19.1155 14.357 19.7281C14.8709 19.2865 15.5079 19.0133 16.182 18.9451Z" fill="#7F4A41"/>
<path d="M16.078 22.8001C15.2602 22.7549 14.4526 22.5971 13.678 22.3311C13.522 22.2791 13.365 22.3831 13.209 22.3311C11.9491 21.9741 10.8355 21.2257 10.029 20.1941V20.4031C10.029 25.0431 11.645 23.6351 12.74 24.2091C13.8305 24.5729 14.9903 24.6801 16.129 24.5221C17.2676 24.6825 18.428 24.5753 19.518 24.2091C20.613 23.6361 22.229 25.0431 22.229 20.4031V19.9341C21.4574 21.0674 20.316 21.8974 19 22.2821C18.844 22.3341 18.583 22.2301 18.427 22.2301C17.6827 22.554 16.888 22.7468 16.078 22.8001Z" fill="#442823"/>
<path d="M13.941 20.3C13.941 20.3 13.368 21.9681 13.785 22.7001L13.264 22.491C13.435 21.7449 13.6613 21.0126 13.941 20.3Z" fill="#442823"/>
<path d="M18.32 20.3C18.32 20.3 18.893 21.9681 18.476 22.7001L19 22.491C18.8531 21.7383 18.6251 21.0037 18.32 20.3Z" fill="#442823"/>
<path d="M12.585 11.908C12.376 12.586 11.699 14.932 13.054 14.15C12.5597 14.5383 12.2258 15.0951 12.116 15.714C12.0505 16.0459 11.8944 16.3531 11.6649 16.6017C11.4354 16.8502 11.1416 17.0303 10.816 17.122C9.91478 17.2577 8.99628 17.0344 8.258 16.5C7.82567 16.0857 7.52935 15.5499 7.40828 14.9635C7.28721 14.377 7.34709 13.7677 7.58 13.216C7.7386 12.7668 8.02572 12.3742 8.40567 12.0869C8.78561 11.7996 9.24162 11.6303 9.717 11.6C10.709 11.334 12.794 11.126 12.585 11.908Z" fill="#CCAC8D"/>
<path d="M16.13 18.528C16.7762 18.7099 17.3539 19.0794 17.79 19.5897C18.2261 20.1001 18.501 20.7283 18.58 21.395V21.295C18.5636 20.6026 18.312 19.9364 17.8668 19.4059C17.4215 18.8754 16.809 18.5122 16.13 18.376C15.4467 18.5034 14.8288 18.8641 14.382 19.3965C13.9351 19.9289 13.687 20.5999 13.68 21.295V21.395C13.7676 20.7315 14.0457 20.1075 14.4805 19.5987C14.9153 19.0899 15.4882 18.718 16.13 18.528Z" fill="black"/>
<path d="M16.624 15.441C16.7075 15.4195 16.7401 15.2663 16.6969 15.099C16.6538 14.9316 16.5511 14.8133 16.4677 14.8348C16.3843 14.8563 16.3516 15.0095 16.3948 15.1769C16.438 15.3443 16.5406 15.4625 16.624 15.441Z" fill="#331712"/>
<path d="M15.7577 15.1927C15.809 15.0276 15.7838 14.873 15.7015 14.8475C15.6192 14.822 15.511 14.9351 15.4597 15.1002C15.4085 15.2653 15.4337 15.4199 15.516 15.4454C15.5983 15.4709 15.7065 15.3578 15.7577 15.1927Z" fill="#331712"/>
<path d="M10.031 16.339C11.0963 16.339 11.96 15.4753 11.96 14.41C11.96 13.3446 11.0963 12.481 10.031 12.481C8.96563 12.481 8.10199 13.3446 8.10199 14.41C8.10199 15.4753 8.96563 16.339 10.031 16.339Z" fill="black"/>
<path d="M10.552 14.0449C10.8397 14.0449 11.073 13.8117 11.073 13.5239C11.073 13.2362 10.8397 13.0029 10.552 13.0029C10.2643 13.0029 10.031 13.2362 10.031 13.5239C10.031 13.8117 10.2643 14.0449 10.552 14.0449Z" fill="white"/>
<path d="M16.7 14.4099C16.7 14.4099 16.179 14.6189 16.074 14.6709C15.8544 14.6128 15.6438 14.525 15.448 14.4099H16.7Z" fill="#7F4A41"/>
<path d="M12.9 14.3059C11.9192 14.994 11.0108 15.7801 10.189 16.6519C9.25098 17.8519 9.25098 18.0599 9.25098 18.0599L9.92898 18.3729C10.4358 17.3838 11.1678 16.5275 12.066 15.8729C13.266 15.1949 13.421 14.6219 13.421 14.6219L12.9 14.3059Z" fill="#EFCCA3"/>
<path d="M9.09196 10.813C8.72866 11.7748 8.04821 12.584 7.16296 13.107C7.71586 13.0415 8.22304 12.7678 8.58137 12.3417C8.9397 11.9155 9.12227 11.3689 9.09196 10.813Z" fill="#CCAC8D"/>
<path d="M22.908 10.813C23.2713 11.7748 23.9517 12.584 24.837 13.107C24.2841 13.0415 23.7769 12.7678 23.4186 12.3417C23.0602 11.9155 22.8777 11.3689 22.908 10.813Z" fill="#CCAC8D"/>
<path d="M19.31 13.836C18.472 13.0344 17.3884 12.5384 16.234 12.428H16.39C15.8126 12.4211 15.2411 12.544 14.7177 12.7877C14.1942 13.0314 13.7323 13.3897 13.366 13.836C14.2263 13.1551 15.2928 12.7873 16.39 12.793C17.4401 12.8685 18.4497 13.2291 19.31 13.836Z" fill="#CCAC8D"/>
<path d="M17.746 10.969C17.3644 10.4671 16.8044 10.1313 16.182 10.031H16.338C16.026 10.0416 15.7222 10.1337 15.4569 10.2983C15.1916 10.4629 14.974 10.6941 14.826 10.969C15.2215 10.5534 15.7646 10.3099 16.338 10.291C16.6074 10.2973 16.8724 10.3611 17.1152 10.478C17.358 10.5949 17.573 10.7623 17.746 10.969Z" fill="#CCAC8D"/>
<path d="M10.031 17.7461C9.48463 18.0276 8.85485 18.1018 8.258 17.9551H8.05C7.63722 17.5298 7.33327 17.0111 7.164 16.4431C7.38055 16.989 7.8002 17.4297 8.33481 17.6726C8.86941 17.9156 9.47738 17.9419 10.031 17.7461Z" fill="#CCAC8D"/>
<path d="M22.126 17.7461C22.6724 18.0276 23.3021 18.1018 23.899 17.9551H23.69C23.9967 17.8322 24.2623 17.625 24.4561 17.3574C24.6499 17.0898 24.7639 16.7728 24.785 16.4431C24.7048 16.7092 24.5706 16.956 24.3908 17.1679C24.2109 17.3797 23.9892 17.5522 23.7397 17.6745C23.4901 17.7968 23.2179 17.8663 22.9403 17.8786C22.6626 17.891 22.3854 17.8458 22.126 17.7461Z" fill="#CCAC8D"/>
<path d="M11.23 10.709C11.9746 10.5628 12.7434 10.5971 13.472 10.809C14.41 11.122 13.681 12.373 13.837 12.425C14.1375 12.1513 14.4928 11.9446 14.8794 11.8187C15.266 11.6929 15.6749 11.6507 16.079 11.695C17.852 11.795 18.06 12.581 18.321 12.425C18.582 12.325 18.06 10.235 20.771 10.705C20.771 10.705 18.008 9.97505 18.112 11.956C17.5414 11.5833 16.8785 11.3765 16.1972 11.3589C15.5159 11.3412 14.8431 11.5133 14.254 11.856C14.254 11.856 14.827 9.92705 11.23 10.709Z" fill="#CCAC8D"/>
<path d="M10.5 8C10.5 8 8.09998 10.972 7.78898 12.118C7.42398 13.265 7.16298 18.061 6.85098 18.739L5.75598 14.045L7.78898 9.145L10.5 8Z" fill="#CCAC8D"/>
<path d="M21.656 8C21.656 8 24.056 10.972 24.367 12.118C24.732 13.265 24.993 18.061 25.305 18.739L26.4 14.045L24.367 9.145L21.656 8Z" fill="#CCAC8D"/>
<path d="M21.5 7.99997C22.9551 9.23619 24.083 10.812 24.784 12.588C25.514 15.038 25.201 18.062 25.775 18.427C26.609 18.948 27.495 15.82 27.808 15.508C28.277 14.987 29.893 13.631 29.998 13.371C30.103 13.111 26.766 9.46097 25.254 8.73097C23.585 7.89297 21.4 7.78897 21.5 7.99997Z" fill="#56332B"/>
<path d="M23.69 9.30005C25.5358 11.8164 26.5723 14.8347 26.662 17.954L27.862 15.504C26.9623 13.1451 25.5353 11.0231 23.69 9.30005Z" fill="#442823"/>
<path d="M10.5 7.99997C9.04493 9.23619 7.917 10.812 7.21599 12.588C6.48599 15.038 6.79899 18.062 6.22499 18.427C5.39099 18.948 4.50499 15.82 4.19199 15.508C3.72299 14.987 2.10699 13.631 2.00199 13.371C1.89699 13.111 5.23399 9.46097 6.74599 8.73097C8.41499 7.89297 10.6 7.78897 10.5 7.99997Z" fill="#56332B"/>
<path d="M8.31002 9.30005C6.46427 11.8164 5.42771 14.8347 5.33801 17.954L4.14001 15.5C5.03966 13.1428 6.46595 11.0221 8.31002 9.30005Z" fill="#442823"/>
<path d="M6.64203 18.0071C6.7245 18.562 6.91949 19.0942 7.21503 19.5711C7.58003 19.9361 7.31503 19.2581 7.31503 19.2581C7.31503 19.2581 6.95003 19.0491 7.00203 17.5381C7.05403 16.0271 6.64203 18.0071 6.64203 18.0071Z" fill="#CCAC8D"/>
<path d="M25.41 18.0069C25.3275 18.5618 25.1325 19.0941 24.837 19.5709C24.472 19.9359 24.737 19.2579 24.737 19.2579C24.737 19.2579 25.102 19.0489 25.05 17.5379C24.993 16.0779 25.41 18.0069 25.41 18.0069Z" fill="#CCAC8D"/>
<path d="M13.889 17.2771C13.9751 17.2771 14.045 17.2072 14.045 17.1211C14.045 17.0349 13.9751 16.9651 13.889 16.9651C13.8028 16.9651 13.733 17.0349 13.733 17.1211C13.733 17.2072 13.8028 17.2771 13.889 17.2771Z" fill="#442823"/>
<path d="M12.846 18.3721C12.9322 18.3721 13.002 18.3022 13.002 18.2161C13.002 18.1299 12.9322 18.0601 12.846 18.0601C12.7598 18.0601 12.69 18.1299 12.69 18.2161C12.69 18.3022 12.7598 18.3721 12.846 18.3721Z" fill="#442823"/>
<path d="M12.533 17.2771C12.6192 17.2771 12.689 17.2072 12.689 17.1211C12.689 17.0349 12.6192 16.9651 12.533 16.9651C12.4469 16.9651 12.377 17.0349 12.377 17.1211C12.377 17.2072 12.4469 17.2771 12.533 17.2771Z" fill="#442823"/>
<path d="M18.164 17.2771C18.2502 17.2771 18.32 17.2072 18.32 17.1211C18.32 17.0349 18.2502 16.9651 18.164 16.9651C18.0778 16.9651 18.008 17.0349 18.008 17.1211C18.008 17.2072 18.0778 17.2771 18.164 17.2771Z" fill="#442823"/>
<path d="M19.154 18.3721C19.2401 18.3721 19.31 18.3022 19.31 18.2161C19.31 18.1299 19.2401 18.0601 19.154 18.0601C19.0678 18.0601 18.998 18.1299 18.998 18.2161C18.998 18.3022 19.0678 18.3721 19.154 18.3721Z" fill="#442823"/>
<path d="M19.467 17.2771C19.5531 17.2771 19.623 17.2072 19.623 17.1211C19.623 17.0349 19.5531 16.9651 19.467 16.9651C19.3808 16.9651 19.311 17.0349 19.311 17.1211C19.311 17.2072 19.3808 17.2771 19.467 17.2771Z" fill="#442823"/>
</svg>
