<svg width="32" height="32" viewBox="0 0 32 32" fill="none" xmlns="http://www.w3.org/2000/svg">
<path d="M15.8645 0.0090332C7.76045 0.00903378 8.26651 3.53721 8.26651 3.53721L8.27555 7.19237H16.009V8.28983H5.20384C5.20384 8.28983 0.0180664 7.69941 0.0180664 15.9085C0.0180658 24.1176 4.54432 23.8265 4.54432 23.8265H7.24562V20.0172C7.24562 20.0172 7.10002 15.4732 11.6996 15.4732H19.3698C19.3698 15.4732 23.6793 15.5431 23.6793 11.292V4.2628C23.6793 4.2628 24.3336 0.0090332 15.8645 0.0090332ZM11.6002 2.46697C12.3696 2.46697 12.9915 3.09129 12.9915 3.86373C12.9915 4.63617 12.3696 5.26049 11.6002 5.26049C10.8308 5.26049 10.2089 4.63617 10.2089 3.86373C10.2089 3.09129 10.8308 2.46697 11.6002 2.46697Z" fill="url(#paint0_linear_203_110)"/>
<path d="M16.0946 31.8903C24.1987 31.8903 23.6926 28.3621 23.6926 28.3621L23.6836 24.707H15.9501V23.6095H26.7553C26.7553 23.6095 31.9411 24.1999 31.9411 15.9908C31.9411 7.7817 27.4148 8.07281 27.4148 8.07281H24.7135V11.8822C24.7135 11.8822 24.8591 16.4262 20.2595 16.4262H12.5893C12.5893 16.4262 8.27985 16.3562 8.27985 20.6074V27.6365C8.27985 27.6365 7.62556 31.8903 16.0946 31.8903ZM20.3589 29.4324C19.5895 29.4324 18.9676 28.808 18.9676 28.0356C18.9676 27.2632 19.5895 26.6388 20.3589 26.6388C21.1283 26.6388 21.7502 27.2632 21.7502 28.0356C21.7502 28.808 21.1283 29.4324 20.3589 29.4324Z" fill="url(#paint1_linear_203_110)"/>
<defs>
<linearGradient id="paint0_linear_203_110" x1="3.08593" y1="2.87667" x2="18.9671" y2="18.538" gradientUnits="userSpaceOnUse">
<stop stop-color="#387EB8"/>
<stop offset="1" stop-color="#366994"/>
</linearGradient>
<linearGradient id="paint1_linear_203_110" x1="12.7962" y1="12.9732" x2="29.8478" y2="29.0297" gradientUnits="userSpaceOnUse">
<stop stop-color="#FFE052"/>
<stop offset="1" stop-color="#FFC331"/>
</linearGradient>
</defs>
</svg>
