<svg width="32" height="32" viewBox="0 0 32 32" fill="none" xmlns="http://www.w3.org/2000/svg">
<path d="M31.9906 0H0.009375C0.00419733 0 0 0.00419733 0 0.009375V31.9906C0 31.9958 0.00419733 32 0.009375 32H31.9906C31.9958 32 32 31.9958 32 31.9906V0.009375C32 0.00419733 31.9958 0 31.9906 0Z" fill="#CC6699"/>
<path d="M16.125 5.49999C10.125 7.56249 6.24998 11.75 6.62498 14.25C6.99998 16.75 10.75 18.75 12.4375 20.0625C10.25 21.1875 7.49998 22.875 7.56248 25.0625C7.68748 28.0625 10.9375 27.125 12.3125 26.25C13.6875 25.375 15.0625 22.9375 14.1875 20.375C16.125 19.875 17.8125 20.5 18.3125 20.875C20.25 22.25 19.25 23.8125 18.5625 24.0625C17.875 24.3125 18.3125 24.4375 18.75 24.3125C19.1875 24.1875 20.125 23.5625 20.125 22.5C20.125 19.8125 17.25 18.5625 13.6875 19.5C11.625 17.3125 8.81248 16.3125 8.93748 13.9375C8.99998 13.0625 9.31248 10.8125 14.875 7.99999C20.4375 5.18749 24.375 6.31249 23.875 8.87499C23.125 12.75 16.375 15.375 14 13.125C13.875 12.875 13.4375 12.6875 13.6875 13.375C14.9375 16.5 25.0625 15.0625 25.5 8.43749C25.625 4.93749 20.5625 3.99999 16.125 5.49999ZM10.75 25.5C9.18748 26 9.24998 25 9.31248 24.625C9.49998 23.5625 10.375 22.25 13 20.9375C13.75 23.3125 12.0625 25.125 10.75 25.5Z" fill="white"/>
</svg>
