<svg width="150" height="148" viewBox="0 0 150 148" fill="none" xmlns="http://www.w3.org/2000/svg">
<path d="M131.25 13H11.25C5.0475 13 0 18.0475 0 24.25V99.25C0 105.453 5.0475 110.5 11.25 110.5H67.5V125.5H41.25C39.18 125.5 37.5 127.18 37.5 129.25C37.5 131.32 39.18 133 41.25 133H101.25C103.32 133 105 131.32 105 129.25C105 127.18 103.32 125.5 101.25 125.5H75V110.5H131.25C137.453 110.5 142.5 105.453 142.5 99.25V24.25C142.5 18.0475 137.453 13 131.25 13ZM135 99.25C135 101.32 133.32 103 131.25 103H11.25C9.18 103 7.5 101.32 7.5 99.25V24.25C7.5 22.18 9.18 20.5 11.25 20.5H131.25C133.32 20.5 135 22.18 135 24.25V99.25Z" fill="white"/>
</svg>
