<svg width="32" height="32" viewBox="0 0 32 32" fill="none" xmlns="http://www.w3.org/2000/svg">
<path d="M27.282 4.65C24.288 1.65 20.306 0 16.064 0C7.32603 0 0.214031 7.112 0.214031 15.856C0.214031 18.65 0.946031 21.382 2.33203 23.782L0.0820312 32L8.48803 29.794C10.806 31.056 13.414 31.726 16.062 31.726H16.068C24.806 31.726 31.924 24.614 31.924 15.87C31.924 11.632 30.274 7.652 27.28 4.652L27.282 4.65ZM16.068 29.05C13.7 29.05 11.38 28.412 9.35603 27.212L8.87403 26.924L3.88603 28.23L5.21803 23.368L4.90603 22.868C3.58003 20.774 2.88803 18.35 2.88803 15.856C2.88803 8.588 8.80003 2.674 16.076 2.674C19.594 2.674 22.908 4.05 25.394 6.536C27.882 9.03 29.25 12.336 29.25 15.86C29.244 23.134 23.332 29.048 16.068 29.048V29.05ZM23.294 19.176C22.9 18.976 20.95 18.02 20.588 17.888C20.226 17.756 19.962 17.688 19.694 18.088C19.432 18.482 18.67 19.376 18.438 19.644C18.206 19.906 17.976 19.944 17.582 19.744C17.188 19.544 15.906 19.126 14.394 17.776C13.218 16.726 12.42 15.426 12.188 15.032C11.956 14.638 12.162 14.42 12.364 14.226C12.546 14.05 12.758 13.764 12.958 13.532C13.158 13.3 13.22 13.138 13.352 12.87C13.484 12.608 13.42 12.376 13.32 12.176C13.22 11.976 12.426 10.026 12.102 9.232C11.784 8.456 11.452 8.564 11.208 8.55C10.976 8.538 10.714 8.538 10.452 8.538C10.19 8.538 9.75803 8.638 9.39603 9.032C9.03403 9.426 8.00803 10.388 8.00803 12.338C8.00803 14.288 9.42603 16.17 9.62603 16.438C9.82603 16.7 12.42 20.706 16.394 22.42C17.338 22.826 18.076 23.07 18.65 23.258C19.6 23.558 20.462 23.514 21.144 23.414C21.906 23.302 23.488 22.458 23.82 21.532C24.152 20.606 24.152 19.814 24.052 19.65C23.958 19.474 23.696 19.376 23.296 19.174L23.294 19.176Z" fill="white"/>
</svg>
